<?xml version="1.0" encoding="UTF-8" standalone="no"?>
<!DOCTYPE svg PUBLIC "-//W3C//DTD SVG 1.1//EN"
 "http://www.w3.org/Graphics/SVG/1.1/DTD/svg11.dtd">
<!-- Generated by graphviz version 2.36.0 (20140111.2315)
 -->
<!-- Title: G Pages: 1 -->
<svg width="88pt" height="44pt"
 viewBox="0.00 0.00 88.00 44.00" xmlns="http://www.w3.org/2000/svg" xmlns:xlink="http://www.w3.org/1999/xlink">
<g id="graph0" class="graph" transform="scale(1 1) rotate(0) translate(4 40)">
<title>G</title>
<polygon fill="white" stroke="none" points="-4,4 -4,-40 84,-40 84,4 -4,4"/>
<!-- node0 -->
<g id="node1" class="node"><title>node0</title>
<polygon fill="none" stroke="black" stroke-width="0.5" points="80,-36.5 0,-36.5 0,0.5 80,0.5 80,-36.5"/>
<polygon fill="#fbfeb0" stroke="none" points="1,-18 1,-35 30,-35 30,-18 1,-18"/>
<polygon fill="none" stroke="black" points="1,-18 1,-35 30,-35 30,-18 1,-18"/>
<text text-anchor="start" x="4.5" y="-24.8" font-family="Helvetica,sans-Serif" font-size="9.00" fill="#444443">value</text>
<polygon fill="#d9e6f5" stroke="none" points="30,-18 30,-35 79,-35 79,-18 30,-18"/>
<polygon fill="none" stroke="black" points="30,-18 30,-35 79,-35 79,-18 30,-18"/>
<text text-anchor="start" x="33" y="-24.8" font-family="Helvetica,sans-Serif" font-size="9.00" fill="#444443">next_node</text>
<polygon fill="#fbfeb0" stroke="none" points="1,-0 1,-18 30,-18 30,-0 1,-0"/>
<polygon fill="none" stroke="black" points="1,-0 1,-18 30,-18 30,-0 1,-0"/>
<text text-anchor="start" x="12" y="-6.2" font-family="Helvetica,sans-Serif" font-size="11.00" fill="#444443">1</text>
<polygon fill="#d9e6f5" stroke="none" points="30,-0 30,-18 79,-18 79,-0 30,-0"/>
<text text-anchor="start" x="52.5" y="-6.2" font-family="Helvetica,sans-Serif" font-size="11.00" fill="#444443"> </text>
</g>
</g>
</svg>
