<?xml version="1.0" encoding="UTF-8" standalone="no"?>
<!DOCTYPE svg PUBLIC "-//W3C//DTD SVG 1.1//EN"
 "http://www.w3.org/Graphics/SVG/1.1/DTD/svg11.dtd">
<!-- Generated by graphviz version 2.36.0 (20140111.2315)
 -->
<!-- Title: G Pages: 1 -->
<svg width="276pt" height="44pt"
 viewBox="0.00 0.00 276.00 44.00" xmlns="http://www.w3.org/2000/svg" xmlns:xlink="http://www.w3.org/1999/xlink">
<g id="graph0" class="graph" transform="scale(1 1) rotate(0) translate(4 40)">
<title>G</title>
<polygon fill="white" stroke="none" points="-4,4 -4,-40 272,-40 272,4 -4,4"/>
<!-- node0 -->
<g id="node1" class="node"><title>node0</title>
<polygon fill="none" stroke="black" stroke-width="0.5" points="80,-36.5 0,-36.5 0,0.5 80,0.5 80,-36.5"/>
<polygon fill="#fbfeb0" stroke="none" points="1,-18 1,-35 30,-35 30,-18 1,-18"/>
<polygon fill="none" stroke="black" points="1,-18 1,-35 30,-35 30,-18 1,-18"/>
<text text-anchor="start" x="4.5" y="-24.8" font-family="Helvetica,sans-Serif" font-size="9.00" fill="#444443">value</text>
<polygon fill="#d9e6f5" stroke="none" points="30,-18 30,-35 79,-35 79,-18 30,-18"/>
<polygon fill="none" stroke="black" points="30,-18 30,-35 79,-35 79,-18 30,-18"/>
<text text-anchor="start" x="33" y="-24.8" font-family="Helvetica,sans-Serif" font-size="9.00" fill="#444443">next_node</text>
<polygon fill="#fbfeb0" stroke="none" points="1,-0 1,-18 30,-18 30,-0 1,-0"/>
<polygon fill="none" stroke="black" points="1,-0 1,-18 30,-18 30,-0 1,-0"/>
<text text-anchor="start" x="12" y="-6.2" font-family="Helvetica,sans-Serif" font-size="11.00" fill="#444443">3</text>
<polygon fill="#d9e6f5" stroke="none" points="30,-0 30,-18 79,-18 79,-0 30,-0"/>
<text text-anchor="start" x="52.5" y="-6.2" font-family="Helvetica,sans-Serif" font-size="11.00" fill="#444443"> </text>
</g>
<!-- node1 -->
<g id="node2" class="node"><title>node1</title>
<polygon fill="none" stroke="black" stroke-width="0.5" points="174,-36.5 94,-36.5 94,0.5 174,0.5 174,-36.5"/>
<polygon fill="#fbfeb0" stroke="none" points="95,-18 95,-35 124,-35 124,-18 95,-18"/>
<polygon fill="none" stroke="black" points="95,-18 95,-35 124,-35 124,-18 95,-18"/>
<text text-anchor="start" x="98.5" y="-24.8" font-family="Helvetica,sans-Serif" font-size="9.00" fill="#444443">value</text>
<polygon fill="#d9e6f5" stroke="none" points="124,-18 124,-35 173,-35 173,-18 124,-18"/>
<polygon fill="none" stroke="black" points="124,-18 124,-35 173,-35 173,-18 124,-18"/>
<text text-anchor="start" x="127" y="-24.8" font-family="Helvetica,sans-Serif" font-size="9.00" fill="#444443">next_node</text>
<polygon fill="#fbfeb0" stroke="none" points="95,-0 95,-18 124,-18 124,-0 95,-0"/>
<polygon fill="none" stroke="black" points="95,-0 95,-18 124,-18 124,-0 95,-0"/>
<text text-anchor="start" x="106" y="-6.2" font-family="Helvetica,sans-Serif" font-size="11.00" fill="#444443">2</text>
<polygon fill="#d9e6f5" stroke="none" points="124,-0 124,-18 173,-18 173,-0 124,-0"/>
<text text-anchor="start" x="146.5" y="-6.2" font-family="Helvetica,sans-Serif" font-size="11.00" fill="#444443"> </text>
</g>
<!-- node0&#45;&gt;node1 -->
<g id="edge1" class="edge"><title>node0:next:c&#45;&gt;node1:value</title>
<path fill="none" stroke="#444443" stroke-width="0.5" d="M59.5625,-9C65.5557,-9 78.1424,-9 89.7725,-9"/>
<ellipse fill="#444443" stroke="#444443" stroke-width="0.5" cx="57.6" cy="-9.00004" rx="1.6" ry="1.6"/>
<polygon fill="#444443" stroke="#444443" stroke-width="0.5" points="90,-10.4001 94,-9 90,-7.60009 90,-10.4001"/>
</g>
<!-- node2 -->
<g id="node3" class="node"><title>node2</title>
<polygon fill="none" stroke="black" stroke-width="0.5" points="268,-36.5 188,-36.5 188,0.5 268,0.5 268,-36.5"/>
<polygon fill="#fbfeb0" stroke="none" points="189,-18 189,-35 218,-35 218,-18 189,-18"/>
<polygon fill="none" stroke="black" points="189,-18 189,-35 218,-35 218,-18 189,-18"/>
<text text-anchor="start" x="192.5" y="-24.8" font-family="Helvetica,sans-Serif" font-size="9.00" fill="#444443">value</text>
<polygon fill="#d9e6f5" stroke="none" points="218,-18 218,-35 267,-35 267,-18 218,-18"/>
<polygon fill="none" stroke="black" points="218,-18 218,-35 267,-35 267,-18 218,-18"/>
<text text-anchor="start" x="221" y="-24.8" font-family="Helvetica,sans-Serif" font-size="9.00" fill="#444443">next_node</text>
<polygon fill="#fbfeb0" stroke="none" points="189,-0 189,-18 218,-18 218,-0 189,-0"/>
<polygon fill="none" stroke="black" points="189,-0 189,-18 218,-18 218,-0 189,-0"/>
<text text-anchor="start" x="200" y="-6.2" font-family="Helvetica,sans-Serif" font-size="11.00" fill="#444443">1</text>
<polygon fill="#d9e6f5" stroke="none" points="218,-0 218,-18 267,-18 267,-0 218,-0"/>
<text text-anchor="start" x="240.5" y="-6.2" font-family="Helvetica,sans-Serif" font-size="11.00" fill="#444443"> </text>
</g>
<!-- node1&#45;&gt;node2 -->
<g id="edge2" class="edge"><title>node1:next:c&#45;&gt;node2:value</title>
<path fill="none" stroke="#444443" stroke-width="0.5" d="M153.562,-9C159.556,-9 172.142,-9 183.772,-9"/>
<ellipse fill="#444443" stroke="#444443" stroke-width="0.5" cx="151.6" cy="-9.00004" rx="1.6" ry="1.6"/>
<polygon fill="#444443" stroke="#444443" stroke-width="0.5" points="184,-10.4001 188,-9 184,-7.60009 184,-10.4001"/>
</g>
</g>
</svg>
